# xmcd CD database file
#
# Track frame offsets:
#	187
#	17827
#	38400
#	55442
#	68297
#	92540
#	115995
#	132872
#	152222
#	173722
#	190117
#
# Disc length: 2910 seconds
#
# Revision: 3
# Processed by: cddbd v1.4PL0 Copyright (c) Steve Scherf et al.
# Submitted via: CDex 1.50
#
DISCID=830b5c0b
DTITLE=Duets by Blues and Country Performers - Rhythm Country and Blues
DYEAR=1994
DGENRE=Blues
TTITLE0=Nothing like the real thing
TTITLE1=Funny how time slips away
TTITLE2=I fall to pieces
TTITLE3=Somethin' else
TTITLE4=When something is wrong with my baby
TTITLE5=Rainy night in Georgia
TTITLE6=Chain of fools
TTITLE7=Since I fell for you
TTITLE8=Southern nights
TTITLE9=The weight
TTITLE10=Patches
EXTD=YEAR: 1994
EXTT0=
EXTT1=
EXTT2=
EXTT3=
EXTT4=
EXTT5=
EXTT6=
EXTT7=
EXTT8=
EXTT9=
EXTT10=
PLAYORDER=
